<?xml version="1.0" standalone="no"?>
<!DOCTYPE svg PUBLIC "-//W3C//DTD SVG 1.1//EN" "http://www.w3.org/Graphics/SVG/1.1/DTD/svg11.dtd" >
<svg xmlns="http://www.w3.org/2000/svg">
<metadata></metadata>
<defs>
<font id="qualcomm_officesemibold" horiz-adv-x="1284" >
<font-face units-per-em="2048" ascent="1638" descent="-410" />
<missing-glyph horiz-adv-x="434" />
<glyph unicode="&#xfb01;" horiz-adv-x="1142" d="M33 711v204h149v109q0 154 94.5 240t233.5 86q49 0 90 -9.5t70 -23.5l-45 -205q-14 8 -33 13t-45 5q-45 0 -80 -29.5t-35 -90.5v-95h191v-204h-191v-711h-250v711h-149zM754 1180q0 63 45 104t106 41q59 0 104.5 -41t45.5 -104t-45 -104.5t-105 -41.5q-61 0 -106 41 t-45 105zM778 0v915h254v-915h-254z" />
<glyph unicode="&#xfb02;" horiz-adv-x="1142" d="M33 711v204h149v109q0 154 94.5 240t233.5 86q49 0 90 -9.5t70 -23.5l-45 -205q-14 8 -33 13t-45 5q-45 0 -80 -29.5t-35 -90.5v-95h191v-204h-191v-711h-250v711h-149zM778 0v1331h254v-1331h-254z" />
<glyph horiz-adv-x="0" />
<glyph horiz-adv-x="0" />
<glyph unicode="&#xd;" horiz-adv-x="434" />
<glyph unicode=" "  horiz-adv-x="434" />
<glyph unicode="&#x09;" horiz-adv-x="434" />
<glyph unicode="&#xa0;" horiz-adv-x="434" />
<glyph unicode="!" horiz-adv-x="444" d="M61 143q0 68 46.5 114t113.5 46q68 0 115 -46t47 -114q0 -66 -47 -111.5t-115 -45.5t-114 45.5t-46 111.5zM68 1257h309l-62 -851h-186z" />
<glyph unicode="&#x22;" horiz-adv-x="669" d="M78 750v507h207v-507h-207zM385 750v507h207v-507h-207z" />
<glyph unicode="#" horiz-adv-x="1261" d="M41 326l39 176h199l61 254h-209l37 176h213l78 325h200l-77 -325h241l78 325h201l-78 -325h197l-39 -176h-199l-61 -254h208l-36 -176h-213l-78 -326h-203l78 326h-242l-78 -326h-198l78 326h-197zM479 502h242l59 254h-241z" />
<glyph unicode="$" horiz-adv-x="1028" d="M49 311l240 60q25 -76 86 -115t149 -39q90 0 146.5 39t56.5 109q0 55 -34 85.5t-109 49.5l-207 51q-123 31 -210 106.5t-87 223.5q0 141 97 239.5t243 122.5v187h217v-193q125 -27 204 -101.5t111 -179.5l-229 -57q-20 59 -70.5 102t-144.5 43q-82 0 -134 -38.5 t-52 -102.5q0 -51 33.5 -83t97.5 -48l209 -51q143 -35 226 -121t83 -221q0 -145 -96.5 -239.5t-237.5 -121.5v-200h-217v198q-137 20 -234.5 96t-136.5 199z" />
<glyph unicode="%" horiz-adv-x="1372" d="M55 985q0 121 85 207t206 86t206 -86t85 -207q0 -119 -85 -204t-206 -85t-206 85t-85 204zM211 0l778 1257h172l-778 -1257h-172zM225 985q0 -49 35 -84t86 -35q49 0 85 35t36 84q0 51 -36 87t-85 36q-51 0 -86 -36t-35 -87zM735 272q0 119 85 204t206 85t206 -85 t85 -204q0 -121 -85 -206.5t-206 -85.5t-206 86t-85 206zM903 272q0 -51 36 -86.5t87 -35.5t86 35.5t35 86.5q0 49 -35 84t-86 35t-87 -34.5t-36 -84.5z" />
<glyph unicode="&#x26;" horiz-adv-x="1253" d="M74 356q0 117 61.5 196t155.5 128q-51 61 -79 122.5t-28 137.5q0 152 106.5 245t260.5 93q184 0 277.5 -95.5t93.5 -226.5q0 -111 -71 -195.5t-204 -135.5l203 -215q23 47 40 102t28 117l212 -51q-16 -88 -49.5 -171t-83.5 -153l240 -254h-303l-90 94q-72 -53 -158 -83.5 t-180 -30.5q-193 0 -312.5 106.5t-119.5 269.5zM309 365q0 -80 55.5 -132.5t143.5 -52.5q57 0 106.5 15.5t92.5 44.5l-293 305q-47 -27 -76 -72t-29 -108zM420 942q0 -51 28.5 -94t65.5 -82q94 33 132 74t38 110q0 49 -31.5 90t-101.5 41q-55 0 -93 -39t-38 -100z" />
<glyph unicode="'" horiz-adv-x="372" d="M78 750v507h217v-507h-217z" />
<glyph unicode="(" horiz-adv-x="665" d="M61 580q0 285 153 486.5t411 264.5v-256q-139 -39 -230.5 -167t-91.5 -328q0 -201 91 -329t231 -167v-256q-258 63 -411 265t-153 487z" />
<glyph unicode=")" horiz-adv-x="665" d="M41 84q139 39 230 167t91 329t-91 328.5t-230 166.5v256q258 -63 410.5 -265t152.5 -486q0 -285 -152.5 -487t-410.5 -265v256z" />
<glyph unicode="*" horiz-adv-x="708" d="M55 928l168 96l-168 96l66 115l168 -98v194h131v-194l168 98l65 -115l-170 -96l170 -96l-65 -115l-168 98v-194h-131v194l-168 -98z" />
<glyph unicode="+" horiz-adv-x="1146" d="M131 514v197h346v344h195v-344h344v-197h-344v-342h-195v342h-346z" />
<glyph unicode="," horiz-adv-x="430" d="M29 -223l149 229q-51 8 -87 46t-36 102q0 68 46 111.5t114 43.5q66 0 113 -45t47 -129q0 -45 -19.5 -94t-46.5 -90l-116 -174h-164z" />
<glyph unicode="-" horiz-adv-x="649" d="M78 426v221h493v-221h-493z" />
<glyph unicode="." horiz-adv-x="430" d="M55 150q0 70 46 115.5t114 45.5t114 -46t46 -115q0 -70 -46 -117t-114 -47t-114 47t-46 117z" />
<glyph unicode="/" horiz-adv-x="763" d="M10 -172l508 1503h236l-508 -1503h-236z" />
<glyph unicode="0" horiz-adv-x="1122" d="M66 629q0 287 138 468t357 181t357.5 -181.5t138.5 -467.5q0 -287 -138.5 -468t-357.5 -181t-357 181t-138 468zM322 629q0 -174 56 -295t183 -121q125 0 182.5 121t57.5 295t-57.5 294.5t-182.5 120.5q-127 0 -183 -120.5t-56 -294.5z" />
<glyph unicode="1" horiz-adv-x="706" d="M35 813v256l383 188h166v-1257h-256v958z" />
<glyph unicode="2" horiz-adv-x="980" d="M51 0v170l398 420q82 90 140 161.5t58 141.5q0 66 -42 108.5t-116 42.5q-80 0 -127 -54t-61 -130l-248 66q35 154 152 253t284 99q195 0 306.5 -102.5t111.5 -272.5q0 -117 -77.5 -216t-172.5 -200l-241 -260h506v-227h-871z" />
<glyph unicode="3" horiz-adv-x="970" d="M25 326l247 65q12 -82 63.5 -135t143.5 -53q80 0 133.5 45t53.5 121q0 80 -55.5 125t-143.5 45h-80v202h72q80 0 135 40t55 118q0 66 -44 111t-122 45q-82 0 -131 -51.5t-63 -122.5l-236 61q37 145 150.5 240.5t283.5 95.5q190 0 299 -103.5t109 -263.5q0 -90 -43 -164.5 t-111 -107.5q88 -39 131 -113.5t43 -160.5q0 -164 -116.5 -274.5t-317.5 -110.5q-184 0 -305 96t-151 250z" />
<glyph unicode="4" horiz-adv-x="1064" d="M43 250v188l434 819h256l-409 -792h278v260h234v-260h190v-215h-190v-250h-234v250h-559z" />
<glyph unicode="5" horiz-adv-x="995" d="M55 326l242 63q16 -84 67.5 -135t141.5 -51q84 0 137 58t53 149q0 88 -51 146t-139 58q-59 0 -104.5 -24.5t-75.5 -59.5h-205v727h737v-227h-524v-256q29 20 83 38.5t120 18.5q182 0 293.5 -117.5t111.5 -303.5q0 -190 -123 -310t-313 -120q-180 0 -299 94t-152 252z" />
<glyph unicode="6" horiz-adv-x="1044" d="M68 602q0 293 132 484.5t359 191.5q158 0 259.5 -76t146.5 -207l-234 -57q-18 57 -64 91t-110 34q-115 0 -182.5 -110.5t-67.5 -241.5v-19q31 57 101.5 95t162.5 38q190 0 300 -122.5t110 -290.5q0 -178 -118 -305t-326 -127q-117 0 -217.5 56t-163.5 171 q-47 82 -67.5 178t-20.5 217zM330 406q0 -94 57 -152.5t152 -58.5q90 0 148 58t58 153q0 98 -58 157.5t-148 59.5q-94 0 -151.5 -59.5t-57.5 -157.5z" />
<glyph unicode="7" horiz-adv-x="935" d="M33 1028v229h850v-186l-412 -1071h-264l403 1028h-577z" />
<glyph unicode="8" horiz-adv-x="1021" d="M59 344q0 119 65.5 198t154.5 103q-78 33 -129.5 105.5t-51.5 173.5q0 172 124 263t290 91q164 0 288 -91t124 -263q0 -100 -51.5 -173t-129.5 -106q88 -25 154 -103.5t66 -197.5q0 -172 -132.5 -268t-318.5 -96q-188 0 -320.5 96t-132.5 268zM311 365q0 -82 57.5 -130.5 t143.5 -48.5q84 0 141.5 48.5t57.5 130.5q0 84 -57.5 131t-141.5 47q-86 0 -143.5 -47t-57.5 -131zM340 913q0 -74 51 -115.5t121 -41.5t120 42t50 115q0 76 -50 119t-120 43t-121 -43t-51 -119z" />
<glyph unicode="9" horiz-adv-x="1044" d="M63 846q0 178 118 305t327 127q117 0 217 -56.5t164 -170.5q47 -82 67.5 -178.5t20.5 -217.5q0 -293 -132 -484t-360 -191q-158 0 -259 75.5t-146 206.5l233 57q18 -57 64.5 -90.5t109.5 -33.5q115 0 182.5 110.5t67.5 241.5v18q-31 -57 -101.5 -95t-162.5 -38 q-190 0 -300 123t-110 291zM299 852q0 -98 58.5 -157.5t148.5 -59.5q94 0 151.5 59.5t57.5 157.5q0 94 -57.5 152.5t-151.5 58.5q-90 0 -148.5 -58.5t-58.5 -152.5z" />
<glyph unicode=":" horiz-adv-x="430" d="M55 150q0 70 46 115.5t114 45.5t114 -46t46 -115q0 -70 -46 -117t-114 -47t-114 47t-46 117zM55 733q0 70 46 116t114 46t114 -46t46 -116t-46 -117t-114 -47t-114 47t-46 117z" />
<glyph unicode=";" horiz-adv-x="430" d="M29 -223l149 229q-51 8 -87 46t-36 102q0 68 46 111.5t114 43.5q66 0 113 -45t47 -129q0 -45 -19.5 -94t-46.5 -90l-116 -174h-164zM55 733q0 70 46 116t114 46t114 -46t46 -116t-46 -117t-114 -47t-114 47t-46 117z" />
<glyph unicode="&#x3c;" horiz-adv-x="903" d="M113 483v252l671 312v-222l-491 -217l491 -215v-223z" />
<glyph unicode="=" horiz-adv-x="1179" d="M150 358v179h882v-179h-882zM150 692v180h882v-180h-882z" />
<glyph unicode="&#x3e;" horiz-adv-x="903" d="M117 170v223l491 215l-491 217v222l674 -312v-252z" />
<glyph unicode="?" horiz-adv-x="933" d="M41 928q33 154 149.5 252t284.5 98q193 0 305.5 -100.5t112.5 -270.5q0 -115 -68.5 -197.5t-138.5 -158.5q-45 -49 -59.5 -83t-14.5 -62h-252q4 74 28 123t87 122q53 61 103.5 115.5t50.5 126.5q0 68 -42 109.5t-116 41.5q-78 0 -124 -52t-60 -128zM317 143 q0 70 47.5 115t114.5 45q68 0 115 -45t47 -115q0 -66 -47 -111.5t-115 -45.5t-115 45.5t-47 111.5z" />
<glyph unicode="@" horiz-adv-x="1572" d="M49 389q0 322 217 551t568 229q305 0 496.5 -175t191.5 -433q0 -250 -127 -374t-289 -124q-72 0 -133.5 29t-95.5 80q-29 -51 -85.5 -78.5t-113.5 -27.5q-129 0 -204 90t-75 219q0 172 106.5 303t272.5 131q59 0 106.5 -22.5t67.5 -53.5l13 58h211l-84 -484 q-8 -49 6 -72.5t55 -23.5q94 0 151.5 93t57.5 257q0 215 -151.5 337t-376.5 122q-272 0 -444.5 -176t-172.5 -455q0 -322 206 -439.5t413 -117.5q129 0 229 22.5t190 61.5l39 -135q-76 -39 -197.5 -67.5t-260.5 -28.5q-299 0 -543 167.5t-244 536.5zM623 391q0 -57 30.5 -96 t87.5 -39q49 0 84 25.5t56 58.5l37 205q-8 33 -40 54.5t-77 21.5q-80 0 -129 -70t-49 -160z" />
<glyph unicode="A" d="M31 0l481 1257h260l481 -1257h-266l-113 303h-471l-110 -303h-262zM485 524h308l-154 418z" />
<glyph unicode="B" horiz-adv-x="1132" d="M121 0v1257h481q197 0 310.5 -87t113.5 -255q0 -100 -48 -170.5t-118 -95.5q88 -29 146.5 -109.5t58.5 -183.5q0 -172 -112.5 -264t-309.5 -92h-522zM373 221h248q92 0 140 43t48 115q0 74 -48 116t-140 42h-248v-316zM373 741h213q94 0 142 37t48 113t-48 110.5 t-142 34.5h-213v-295z" />
<glyph unicode="C" horiz-adv-x="1214" d="M59 629q0 287 168 468t418 181q203 0 333 -100.5t179 -266.5l-246 -61q-33 88 -95 141t-171 53q-150 0 -234.5 -118.5t-84.5 -296.5t85 -297t234 -119q109 0 171.5 53t94.5 142l246 -62q-49 -166 -179 -266t-333 -100q-250 0 -418 181t-168 468z" />
<glyph unicode="D" horiz-adv-x="1247" d="M121 0v1257h444q285 0 453 -171t168 -457q0 -287 -168 -458t-453 -171h-444zM381 231h174q178 0 274.5 107.5t96.5 290.5q0 184 -96.5 291.5t-274.5 107.5h-174v-797z" />
<glyph unicode="E" horiz-adv-x="1056" d="M121 0v1257h854v-229h-596v-274h541v-224h-541v-299h596v-231h-854z" />
<glyph unicode="F" horiz-adv-x="1026" d="M121 0v1257h837v-229h-577v-319h534v-228h-534v-481h-260z" />
<glyph unicode="G" horiz-adv-x="1271" d="M59 629q0 287 172 468t428 181q207 0 339 -100.5t180 -264.5l-250 -61q-33 88 -95.5 140t-173.5 52q-154 0 -243.5 -117.5t-89.5 -297.5q0 -182 91 -300t249 -118q121 0 195.5 61.5t94.5 178.5h-239v208h495v-110q0 -268 -154.5 -418.5t-391.5 -150.5q-262 0 -434.5 181 t-172.5 468z" />
<glyph unicode="H" horiz-adv-x="1335" d="M121 0v1257h262v-499h569v499h262v-1257h-262v528h-569v-528h-262z" />
<glyph unicode="I" horiz-adv-x="501" d="M121 0v1257h262v-1257h-262z" />
<glyph unicode="J" horiz-adv-x="1042" d="M37 334l260 63q12 -84 58 -132t128 -48q100 0 148.5 59.5t48.5 180.5v800h262v-802q0 -238 -126 -356.5t-329 -118.5q-195 0 -309.5 98t-140.5 256z" />
<glyph unicode="K" horiz-adv-x="1214" d="M121 0v1257h262v-565l473 565h318l-480 -563l498 -694h-318l-372 514l-119 -141v-373h-262z" />
<glyph unicode="L" horiz-adv-x="1038" d="M121 0v1257h262v-1026h586v-231h-848z" />
<glyph unicode="M" horiz-adv-x="1529" d="M121 0v1257h311l336 -886l334 886h307v-1257h-248v821l-305 -821h-178l-311 821v-821h-246z" />
<glyph unicode="N" horiz-adv-x="1294" d="M121 0v1257h246l555 -794v794h252v-1257h-207l-594 838v-838h-252z" />
<glyph unicode="O" horiz-adv-x="1310" d="M59 629q0 281 166 465t428 184t429 -184t167 -465t-167 -465t-429 -184t-428 184t-166 465zM326 629q0 -184 90 -300t237 -116q150 0 241 116t91 300t-91 299.5t-241 115.5q-147 0 -237 -115.5t-90 -299.5z" />
<glyph unicode="P" horiz-adv-x="1130" d="M121 0v1257h512q199 0 320.5 -105t121.5 -306q0 -199 -122 -304.5t-320 -105.5h-252v-436h-260zM381 659h235q100 0 150.5 52.5t50.5 134.5q0 84 -50 136t-151 52h-235v-375z" />
<glyph unicode="Q" horiz-adv-x="1329" d="M59 629q0 281 169 465t436 184q266 0 436 -184.5t170 -464.5q0 -207 -101.5 -368t-263.5 -232v-199h-203v152q-8 -2 -19 -2h-19q-266 0 -435.5 184t-169.5 465zM326 629q0 -184 92 -305t246 -121h20t18 2v266h203v-184q51 51 76 137t25 205q0 184 -94.5 299.5 t-247.5 115.5q-154 0 -246 -115.5t-92 -299.5z" />
<glyph unicode="R" horiz-adv-x="1153" d="M121 0v1257h518q197 0 318.5 -103t121.5 -296q0 -150 -77.5 -244t-208.5 -127l331 -487h-295l-311 469h-137v-469h-260zM381 684h242q98 0 148 48t50 126q0 80 -50 128t-148 48h-242v-350z" />
<glyph unicode="S" horiz-adv-x="1081" d="M33 295l254 63q27 -82 94.5 -121.5t159.5 -39.5q94 0 157.5 41t63.5 116q0 57 -36 90t-118 52l-217 51q-133 33 -224 111.5t-91 232.5q0 170 129 278.5t325 108.5q193 0 314 -84t166 -219l-244 -62q-20 63 -76.5 106.5t-157.5 43.5q-88 0 -144 -41t-56 -107 q0 -53 33.5 -86.5t103.5 -50.5l225 -53q154 -35 239 -124t85 -230q0 -182 -138.5 -286.5t-336.5 -104.5q-190 0 -325.5 83.5t-184.5 231.5z" />
<glyph unicode="T" horiz-adv-x="1177" d="M53 1028v229h1073v-229h-405v-1028h-264v1028h-404z" />
<glyph unicode="U" horiz-adv-x="1249" d="M102 506v751h263v-725q0 -160 68.5 -238.5t191.5 -78.5t191.5 79t68.5 238v725h262v-751q0 -258 -143 -392t-379 -134q-233 0 -378 134t-145 392z" />
<glyph unicode="V" horiz-adv-x="1257" d="M31 1257h276l326 -909l325 909h271l-473 -1257h-254z" />
<glyph unicode="W" horiz-adv-x="1626" d="M25 1257h264l205 -845l221 845h205l217 -845l206 845h259l-328 -1257h-240l-221 829l-221 -829h-240z" />
<glyph unicode="X" horiz-adv-x="1200" d="M14 0l437 641l-416 616h297l270 -407l277 407h286l-415 -612l436 -645h-295l-295 436l-293 -436h-289z" />
<glyph unicode="Y" horiz-adv-x="1214" d="M23 1257h284l305 -532l303 532h277l-457 -780v-477h-260v477z" />
<glyph unicode="Z" horiz-adv-x="1134" d="M82 0v190l631 838h-621v229h952v-188l-626 -838h635v-231h-971z" />
<glyph unicode="[" horiz-adv-x="659" d="M121 -172v1503h497v-219h-260v-1065h260v-219h-497z" />
<glyph unicode="\" horiz-adv-x="763" d="M10 1331h236l508 -1503h-236z" />
<glyph unicode="]" horiz-adv-x="659" d="M41 47h260v1065h-260v219h498v-1503h-498v219z" />
<glyph unicode="^" horiz-adv-x="837" d="M20 807l283 450h232l282 -450h-237l-160 258l-162 -258h-238z" />
<glyph unicode="_" horiz-adv-x="780" d="M41 -86h698v-207h-698v207z" />
<glyph unicode="`" horiz-adv-x="1024" d="M305 1331h252l162 -291h-232z" />
<glyph unicode="a" horiz-adv-x="958" d="M55 281q0 129 103.5 210.5t251.5 81.5q59 0 120.5 -16t87.5 -37v68q0 57 -36.5 98t-112.5 41q-55 0 -92 -22.5t-55 -61.5l-226 55q39 104 142.5 171t240.5 67q180 0 281.5 -94t101.5 -258v-584h-244v49q-23 -23 -85 -44t-138 -21q-137 0 -238.5 77.5t-101.5 219.5z M291 283q0 -59 51 -86t111 -27q55 0 102 21.5t63 58.5v65q-16 37 -63 58.5t-102 21.5q-59 0 -110.5 -27.5t-51.5 -84.5z" />
<glyph unicode="b" horiz-adv-x="1062" d="M109 0v1331h256v-491q31 37 93 66.5t136 29.5q199 0 307.5 -141.5t108.5 -337.5q0 -197 -108.5 -337t-307.5 -140q-74 0 -136.5 29.5t-92.5 66.5v-76h-256zM365 307q20 -47 67 -76.5t105 -29.5q102 0 160.5 73.5t58.5 182.5q0 111 -58.5 184.5t-160.5 73.5 q-55 0 -103.5 -31t-68.5 -76v-301z" />
<glyph unicode="c" horiz-adv-x="917" d="M53 457q0 213 123 346t313 133q152 0 251.5 -74t131.5 -196l-235 -58q-10 51 -49 81t-96 30q-88 0 -137.5 -73t-49.5 -189q0 -115 49 -187.5t138 -72.5q57 0 96 29.5t49 80.5l235 -57q-33 -123 -132 -196.5t-251 -73.5q-190 0 -313 133t-123 344z" />
<glyph unicode="d" horiz-adv-x="1062" d="M53 457q0 197 108.5 338t307.5 141q74 0 136.5 -29.5t92.5 -66.5v491h256v-1331h-256v76q-31 -37 -93 -66.5t-136 -29.5q-199 0 -307.5 140t-108.5 337zM307 457q0 -109 58.5 -182.5t160.5 -73.5q57 0 104.5 29.5t67.5 76.5v301q-20 45 -68 76t-104 31q-102 0 -160.5 -74 t-58.5 -184z" />
<glyph unicode="e" horiz-adv-x="960" d="M53 457q0 207 125 343t316 136q201 0 308 -127t107 -328v-78h-610q6 -104 61.5 -161.5t141.5 -57.5q63 0 109 29t67 86l217 -53q-37 -121 -139.5 -193.5t-255.5 -72.5q-199 0 -323 133t-124 344zM305 557h354q-2 72 -43.5 122t-119.5 50q-74 0 -124 -44t-67 -128z" />
<glyph unicode="f" horiz-adv-x="667" d="M33 711v204h149v109q0 154 94.5 240t233.5 86q49 0 90 -9.5t70 -23.5l-45 -205q-14 8 -33 13t-45 5q-45 0 -80 -29.5t-35 -90.5v-95h191v-204h-191v-711h-250v711h-149z" />
<glyph unicode="g" horiz-adv-x="1056" d="M53 479q0 182 109.5 319.5t306.5 137.5q76 0 135.5 -28.5t89.5 -63.5v71h252v-815q0 -233 -132 -345.5t-325 -112.5q-160 0 -272.5 70.5t-148.5 195.5l233 59q16 -63 66.5 -96t121.5 -33q96 0 150.5 56.5t54.5 166.5v54q-31 -37 -90 -66t-135 -29q-197 0 -306.5 137.5 t-109.5 321.5zM307 479q0 -106 57.5 -176t157.5 -70q57 0 103.5 29t68.5 68v299q-23 39 -68.5 66.5t-103.5 27.5q-100 0 -157.5 -69.5t-57.5 -174.5z" />
<glyph unicode="h" horiz-adv-x="1034" d="M111 0v1331h254v-500q37 43 101 74t144 31q154 0 239 -93t85 -245v-598h-254v545q0 72 -37 117t-113 45q-57 0 -104 -34t-61 -93v-580h-254z" />
<glyph unicode="i" horiz-adv-x="475" d="M86 1180q0 63 45 104t107 41q59 0 104 -41t45 -104t-45 -104.5t-104 -41.5q-61 0 -106.5 41t-45.5 105zM111 0v915h254v-915h-254z" />
<glyph unicode="j" horiz-adv-x="471" d="M-88 -334l41 187q12 -2 25.5 -6.5t27.5 -4.5q51 0 78 29t27 92v952h254v-946q0 -166 -89.5 -246.5t-228.5 -80.5q-39 0 -74.5 6t-60.5 18zM86 1180q0 63 45 104t107 41q59 0 104 -41t45 -104t-45 -104.5t-104 -41.5q-61 0 -106.5 41t-45.5 105z" />
<glyph unicode="k" horiz-adv-x="1021" d="M111 0v1331h254v-756l313 340h315l-370 -389l385 -526h-301l-269 369l-73 -80v-289h-254z" />
<glyph unicode="l" horiz-adv-x="475" d="M111 0v1331h254v-1331h-254z" />
<glyph unicode="m" horiz-adv-x="1519" d="M111 0v915h254v-75q33 43 94 69.5t137 26.5q82 0 144.5 -33t101.5 -84q45 49 112.5 83t163.5 34q141 0 221 -92t80 -246v-598h-254v545q0 74 -32.5 119t-98.5 45q-49 0 -89 -31t-52 -88v-590h-256v545q0 74 -32 119t-97 45q-49 0 -90 -31t-53 -88v-590h-254z" />
<glyph unicode="n" horiz-adv-x="1034" d="M111 0v915h254v-84q37 43 101 74t144 31q154 0 239 -93t85 -245v-598h-254v545q0 72 -37 117t-113 45q-57 0 -104 -34t-61 -93v-580h-254z" />
<glyph unicode="o" horiz-adv-x="1001" d="M53 457q0 211 125 345t324 134t323.5 -134t124.5 -345q0 -209 -125 -343t-323 -134q-199 0 -324 134t-125 343zM305 457q0 -113 51.5 -187.5t145.5 -74.5t145 74.5t51 187.5q0 115 -51 189.5t-145 74.5t-145.5 -75t-51.5 -189z" />
<glyph unicode="p" horiz-adv-x="1062" d="M111 -338v1253h254v-75q31 37 93 66.5t136 29.5q199 0 308.5 -143.5t109.5 -335.5q0 -193 -109.5 -335t-308.5 -142q-74 0 -136.5 29.5t-92.5 66.5v-414h-254zM365 307q23 -47 69.5 -76.5t102.5 -29.5q102 0 160.5 73.5t58.5 182.5q0 111 -58.5 184.5t-160.5 73.5 q-57 0 -103.5 -31t-68.5 -76v-301z" />
<glyph unicode="q" horiz-adv-x="1062" d="M51 457q0 193 109.5 336t308.5 143q74 0 136.5 -29.5t92.5 -66.5v75h254v-1253h-254v414q-31 -37 -93 -66.5t-136 -29.5q-199 0 -308.5 142t-109.5 335zM307 457q0 -109 58.5 -182.5t160.5 -73.5q55 0 102.5 29.5t69.5 76.5v301q-23 45 -68.5 76t-103.5 31 q-102 0 -160.5 -74t-58.5 -184z" />
<glyph unicode="r" horiz-adv-x="718" d="M111 0v915h254v-90q29 49 83 80t121 31q33 0 59.5 -5t37.5 -11v-254q-27 14 -60 22t-67 8q-63 0 -111.5 -32.5t-62.5 -96.5v-567h-254z" />
<glyph unicode="s" horiz-adv-x="894" d="M45 221l238 60q14 -53 61 -81t105 -28q57 0 96 21.5t39 66.5q0 33 -21.5 50.5t-68.5 29.5l-183 43q-102 23 -168.5 82t-66.5 174q0 133 108.5 215t261.5 82q152 0 248.5 -61.5t128.5 -165.5l-223 -58q-12 39 -51 65.5t-103 26.5q-45 0 -84.5 -20.5t-39.5 -65.5 q0 -27 20 -44t61 -27l187 -45q119 -27 179 -93.5t60 -171.5q0 -139 -110.5 -217.5t-272.5 -78.5q-150 0 -256 63t-145 178z" />
<glyph unicode="t" horiz-adv-x="706" d="M27 711v204h139v248h252v-248h200v-204h-200v-404q0 -53 27.5 -77.5t74.5 -24.5q31 0 53.5 8t42.5 18l46 -198q-31 -20 -87.5 -35.5t-111.5 -15.5q-135 0 -216 71.5t-81 222.5v435h-139z" />
<glyph unicode="u" horiz-adv-x="1030" d="M100 317v598h254v-546q0 -72 36 -117t112 -45q57 0 103 33.5t61 93.5v581h256v-915h-254v84q-39 -43 -102.5 -73.5t-143.5 -30.5q-154 0 -238 93t-84 244z" />
<glyph unicode="v" horiz-adv-x="993" d="M27 915h266l211 -608l207 608h256l-349 -915h-245z" />
<glyph unicode="w" horiz-adv-x="1376" d="M27 915h254l163 -583l150 583h194l152 -583l164 583h246l-279 -915h-233l-150 561l-149 -561h-234z" />
<glyph unicode="x" horiz-adv-x="976" d="M18 0l330 467l-311 448h280l177 -260l180 260h266l-313 -442l334 -473h-281l-197 287l-198 -287h-267z" />
<glyph unicode="y" horiz-adv-x="997" d="M27 915h268l211 -608l209 608h256l-383 -1001q-53 -143 -141.5 -207.5t-198.5 -64.5q-45 0 -84 9t-64 23l43 193q14 -8 35 -14.5t47 -6.5q41 0 75 19.5t52 66.5l27 64z" />
<glyph unicode="z" horiz-adv-x="927" d="M78 0v164l440 547h-424v204h742v-163l-433 -547h441v-205h-766z" />
<glyph unicode="{" horiz-adv-x="722" d="M41 469v221h96q29 0 44.5 15.5t15.5 44.5v315q0 117 73.5 191.5t190.5 74.5h221v-219h-186q-29 0 -44.5 -15.5t-15.5 -43.5v-303q0 -66 -28.5 -106t-67.5 -64q39 -25 67.5 -65t28.5 -105v-304q0 -29 15.5 -44t44.5 -15h186v-219h-221q-117 0 -190.5 74.5t-73.5 191.5v316 q0 29 -15.5 44t-44.5 15h-96z" />
<glyph unicode="|" horiz-adv-x="466" d="M121 -172v1503h225v-1503h-225z" />
<glyph unicode="}" horiz-adv-x="722" d="M41 47h186q29 0 44.5 15.5t15.5 43.5v304q0 66 28.5 105.5t67.5 64.5q-39 25 -67.5 64.5t-28.5 105.5v303q0 29 -15.5 44t-44.5 15h-186v219h221q117 0 190.5 -74.5t73.5 -191.5v-315q0 -29 15.5 -44.5t44.5 -15.5h96v-221h-96q-29 0 -44.5 -15.5t-15.5 -43.5v-316 q0 -117 -73.5 -191.5t-190.5 -74.5h-221v219z" />
<glyph unicode="~" horiz-adv-x="876" d="M74 408q0 147 57 229t160 82q94 0 147.5 -60.5t110.5 -60.5q35 0 54.5 27.5t19.5 85.5h180q0 -147 -58.5 -229.5t-158.5 -82.5q-94 0 -147.5 60.5t-110.5 60.5q-35 0 -54.5 -27.5t-19.5 -84.5h-180z" />
<glyph unicode="&#xa1;" horiz-adv-x="458" d="M61 918q0 66 46.5 111.5t113.5 45.5q68 0 115 -46t47 -111q0 -68 -47 -114t-115 -46t-114 46t-46 114zM68 -197l61 852h186l62 -852h-309z" />
<glyph unicode="&#xa2;" horiz-adv-x="940" d="M53 477q0 184 92.5 310t245.5 159v184h217v-186q109 -25 178.5 -95.5t94.5 -170.5l-230 -60q-12 55 -52 90t-103 35q-88 0 -139.5 -74.5t-51.5 -191.5q0 -115 51.5 -189.5t139.5 -74.5q63 0 103 35t52 90l230 -59q-25 -102 -94.5 -172t-178.5 -95v-190h-217v188 q-154 33 -246 159t-92 308z" />
<glyph unicode="&#xa3;" horiz-adv-x="1017" d="M55 0v211h107q20 35 30.5 77t10.5 109v123h-148v199h148v145q0 172 109.5 293t289.5 121q150 0 245 -79t122 -208l-226 -55q-10 57 -43.5 92t-95.5 35q-76 0 -117 -55.5t-41 -139.5v-149h263v-199h-263v-123q0 -53 -10 -104t-33 -82h566v-211h-914z" />
<glyph unicode="&#xa5;" horiz-adv-x="1148" d="M39 1257h280l261 -495l260 495h270l-311 -561h215v-172h-312v-114h312v-172h-312v-238h-258v238h-311v172h311v114h-311v172h217z" />
<glyph unicode="&#xa7;" horiz-adv-x="964" d="M41 623q0 72 36 135t105 102q-20 27 -31.5 60.5t-11.5 74.5q0 129 100.5 206t252.5 77q156 0 250 -70.5t126 -181.5l-219 -57q-8 47 -45.5 84t-105.5 37q-45 0 -82 -21.5t-37 -67.5q0 -39 27.5 -62.5t68.5 -49.5l227 -137q94 -55 158 -126t64 -175q0 -74 -37 -137.5 t-105 -100.5q20 -27 31.5 -60.5t11.5 -74.5q0 -129 -100 -206t-252 -77q-158 0 -252 71t-127 181l221 57q8 -47 46 -83.5t106 -36.5q45 0 81 21.5t36 66.5q0 39 -27 62.5t-70 49.5l-225 138q-94 55 -157.5 125.5t-63.5 175.5zM270 635q0 -41 33 -72t72 -57l250 -160 q37 8 53 36t16 56q0 41 -33.5 72t-72.5 57l-248 160q-39 -8 -54.5 -35.5t-15.5 -56.5z" />
<glyph unicode="&#xa8;" horiz-adv-x="1024" d="M207 1167q0 57 40 97.5t97 40.5q55 0 95 -40t40 -98q0 -55 -40 -95t-95 -40q-57 0 -97 40t-40 95zM543 1167q0 57 40 97.5t95 40.5t96 -40t41 -98q0 -55 -41 -95t-96 -40t-95 40t-40 95z" />
<glyph unicode="&#xa9;" horiz-adv-x="1441" d="M72 629q0 281 191.5 465t457.5 184t457.5 -184t191.5 -465t-191.5 -465t-457.5 -184t-457.5 184t-191.5 465zM168 629q0 -240 164 -397.5t389 -157.5t389 157.5t164 397.5t-164 397.5t-389 157.5t-389 -158t-164 -397zM344 633q0 178 107.5 292.5t275.5 114.5 q131 0 215 -63.5t115 -161.5l-201 -53q-14 41 -46 63.5t-83 22.5q-82 0 -126 -61.5t-44 -153.5q0 -94 44 -155.5t126 -61.5q51 0 83 22.5t46 65.5l201 -53q-31 -100 -115 -164t-215 -64q-168 0 -275.5 115t-107.5 295z" />
<glyph unicode="&#xaa;" horiz-adv-x="630" d="M18 836q0 90 69 144t169 54q39 0 79 -11t60 -24v41q0 33 -21.5 57.5t-66.5 24.5q-31 0 -52.5 -13t-33.5 -38l-172 43q25 72 94.5 119t169.5 47q129 0 203 -65.5t74 -182.5v-383h-195v31q-16 -14 -58 -28.5t-91 -14.5q-92 0 -160 51t-68 148zM213 840q0 -33 27.5 -47.5 t60.5 -14.5q31 0 57.5 11.5t36.5 31.5v37q-10 20 -36.5 32.5t-57.5 12.5q-33 0 -60.5 -15.5t-27.5 -47.5z" />
<glyph unicode="&#xab;" horiz-adv-x="860" d="M51 455l189 329h217l-189 -329l189 -330h-217zM403 455l189 329h217l-188 -329l188 -330h-217z" />
<glyph unicode="&#xad;" horiz-adv-x="649" d="M78 426v221h493v-221h-493z" />
<glyph unicode="&#xae;" horiz-adv-x="833" d="M45 903q0 162 109.5 268.5t261.5 106.5t261 -106.5t109 -268.5t-109.5 -268.5t-260.5 -106.5q-152 0 -261.5 106.5t-109.5 268.5zM113 903q0 -135 89 -223t214 -88t214 88t89 223t-89 223t-214 88t-214 -88t-89 -223zM262 709v393h184q66 0 106 -37t40 -100 q0 -45 -20.5 -76t-55.5 -43l90 -137h-123l-75 125h-35v-125h-111zM373 922h61q25 0 38 11t13 32q0 20 -13 32.5t-38 12.5h-61v-88z" />
<glyph unicode="&#xaf;" horiz-adv-x="1024" d="M268 1057v186h486v-186h-486z" />
<glyph unicode="&#xb0;" horiz-adv-x="731" d="M90 997q0 117 81 199t196 82q113 0 194.5 -82t81.5 -199q0 -115 -82 -196.5t-194 -81.5q-115 0 -196 82t-81 196zM244 997q0 -51 35.5 -88t87.5 -37q49 0 84.5 37t35.5 88t-35.5 89t-84.5 38q-51 0 -87 -38t-36 -89z" />
<glyph unicode="&#xb1;" horiz-adv-x="1165" d="M154 127v186h858v-186h-858zM154 672v184h338v266h184v-266h336v-184h-336v-266h-184v266h-338z" />
<glyph unicode="&#xb2;" horiz-adv-x="610" d="M49 559v123l242 238q39 39 59.5 66t20.5 56q0 27 -17.5 43.5t-46.5 16.5q-31 0 -52.5 -24.5t-29.5 -57.5l-176 49q23 82 91.5 140.5t168.5 58.5q115 0 181.5 -60.5t66.5 -158.5q0 -68 -40 -118t-91 -102l-119 -112h250v-158h-508z" />
<glyph unicode="&#xb3;" horiz-adv-x="604" d="M39 735l176 47q6 -37 28.5 -58.5t61.5 -21.5q33 0 54.5 20.5t21.5 53.5t-23.5 51.5t-58.5 18.5h-55v131h47q35 0 59.5 17.5t24.5 52.5q0 29 -19.5 48t-52.5 19q-35 0 -56.5 -23.5t-29.5 -56.5l-164 47q23 80 86.5 133.5t163.5 53.5q117 0 180.5 -60.5t63.5 -156.5 q0 -43 -21.5 -83t-52.5 -59q39 -20 60.5 -58t21.5 -81q0 -98 -68.5 -160.5t-187.5 -62.5q-104 0 -173 52t-87 136z" />
<glyph unicode="&#xb4;" horiz-adv-x="1024" d="M305 1040l162 291h252l-184 -291h-230z" />
<glyph unicode="&#xb6;" horiz-adv-x="1101" d="M27 895q0 190 145 276t305 86h187v-1441h-187v714q-160 0 -305 87.5t-145 277.5zM795 -184v1441h186v-1441h-186z" />
<glyph unicode="&#xb7;" horiz-adv-x="438" d="M59 539q0 70 46.5 115.5t113.5 45.5q68 0 114 -46t46 -115q0 -70 -46 -117t-114 -47t-114 47t-46 117z" />
<glyph unicode="&#xb8;" horiz-adv-x="1024" d="M317 -381l144 285h233l-151 -285h-226z" />
<glyph unicode="&#xb9;" horiz-adv-x="485" d="M37 956v189l235 112h129v-698h-186v485z" />
<glyph unicode="&#xba;" horiz-adv-x="663" d="M16 958q0 141 88.5 231.5t227.5 90.5t226 -90.5t87 -231.5q0 -143 -87 -233t-226 -90t-227.5 90t-88.5 233zM225 958q0 -66 28 -107.5t79 -41.5t78.5 41.5t27.5 107.5q0 63 -27.5 106.5t-78.5 43.5t-79 -43t-28 -107z" />
<glyph unicode="&#xbb;" horiz-adv-x="860" d="M51 125l189 330l-189 329h217l189 -329l-189 -330h-217zM403 125l189 330l-189 329h218l188 -329l-188 -330h-218z" />
<glyph unicode="&#xbc;" horiz-adv-x="1437" d="M63 956v189l236 112h129v-698h-184v485zM160 0l882 1257h185l-883 -1257h-184zM784 125v141l217 432h183l-197 -417h109v112h164v-112h96v-156h-96v-125h-164v125h-312z" />
<glyph unicode="&#xbd;" horiz-adv-x="1466" d="M63 956v189l236 112h129v-698h-184v485zM160 0l882 1257h185l-883 -1257h-184zM854 0v125l244 235q39 39 58.5 66.5t19.5 56.5q0 27 -17.5 44.5t-44.5 17.5q-31 0 -52.5 -25.5t-29.5 -58.5l-176 49q23 84 90.5 141.5t167.5 57.5q117 0 182.5 -59.5t65.5 -157.5 q0 -70 -39 -120t-90 -102l-119 -110h250v-160h-510z" />
<glyph unicode="&#xbe;" horiz-adv-x="1507" d="M82 735l176 47q6 -37 28.5 -58.5t61.5 -21.5q33 0 55.5 20.5t22.5 53.5t-23.5 51.5t-60.5 18.5h-55v131h47q37 0 60.5 17.5t23.5 52.5q0 29 -18.5 48t-51.5 19q-37 0 -58.5 -23.5t-29.5 -56.5l-164 47q23 80 86.5 133.5t163.5 53.5q117 0 181.5 -60.5t64.5 -156.5 q0 -43 -21.5 -83t-54.5 -59q39 -20 60.5 -58t21.5 -81q0 -98 -68.5 -160.5t-187.5 -62.5q-104 0 -173 52t-87 136zM229 0l883 1257h182l-880 -1257h-185zM854 125v141l215 432h184l-198 -417h110v112h162v-112h98v-156h-98v-125h-162v125h-311z" />
<glyph unicode="&#xbf;" horiz-adv-x="933" d="M41 154q0 115 68.5 197.5t138.5 158.5q45 49 59.5 83t14.5 62h251q-4 -74 -27.5 -123t-86.5 -122q-53 -61 -103.5 -115.5t-50.5 -126.5q0 -68 42 -110t116 -42q78 0 124 52.5t60 128.5l246 -64q-33 -154 -149.5 -252t-284.5 -98q-193 0 -305.5 100.5t-112.5 270.5z M293 918q0 66 47 111.5t115 45.5t114.5 -45.5t46.5 -111.5q0 -70 -47 -115t-114 -45q-68 0 -115 45t-47 115z" />
<glyph unicode="&#xc0;" d="M31 0l481 1257h260l481 -1257h-266l-113 303h-471l-110 -303h-262zM336 1620h276l164 -250h-250zM485 524h308l-154 418z" />
<glyph unicode="&#xc1;" d="M31 0l481 1257h260l481 -1257h-266l-113 303h-471l-110 -303h-262zM485 524h308l-154 418zM504 1370l164 250h276l-190 -250h-250z" />
<glyph unicode="&#xc2;" d="M31 0l481 1257h260l481 -1257h-266l-113 303h-471l-110 -303h-262zM330 1370l205 260h212l205 -260h-215l-96 111l-96 -111h-215zM485 524h308l-154 418z" />
<glyph unicode="&#xc3;" d="M31 0l481 1257h260l481 -1257h-266l-113 303h-471l-110 -303h-262zM336 1364q0 121 41 203t133 82q74 0 126 -43t105 -43q27 0 42.5 20.5t17.5 58.5h145q0 -121 -41 -202.5t-133 -81.5q-74 0 -126 43t-105 43q-29 0 -43.5 -20.5t-16.5 -59.5h-145zM485 524h308l-154 418z " />
<glyph unicode="&#xc4;" d="M31 0l481 1257h260l481 -1257h-266l-113 303h-471l-110 -303h-262zM336 1495q0 59 40 99t97 40t97 -40t40 -99q0 -55 -40 -95t-97 -40t-97 40t-40 95zM485 524h308l-154 418zM674 1495q0 59 40 99t97 40t98 -40t41 -99q0 -55 -41 -95t-98 -40t-97 40t-40 95z" />
<glyph unicode="&#xc5;" d="M31 0l481 1257h260l481 -1257h-266l-113 303h-471l-110 -303h-262zM438 1522q0 84 58.5 141t144.5 57t144.5 -57t58.5 -141t-58.5 -141.5t-144.5 -57.5t-144.5 57.5t-58.5 141.5zM485 524h308l-154 418zM561 1522q0 -33 23.5 -56.5t56.5 -23.5t57.5 23.5t24.5 56.5 t-24.5 57.5t-57.5 24.5t-56.5 -25t-23.5 -57z" />
<glyph unicode="&#xc6;" horiz-adv-x="1800" d="M31 0l717 1257h970v-229h-557v-274h502v-224h-502v-299h557v-231h-815v303h-426l-172 -303h-274zM604 524h299v525z" />
<glyph unicode="&#xc7;" horiz-adv-x="1220" d="M59 629q0 287 168 468t418 181q203 0 333 -100.5t179 -266.5l-246 -61q-33 88 -95 141t-171 53q-150 0 -234.5 -118.5t-84.5 -296.5t85 -297t234 -119q109 0 171.5 53t94.5 142l246 -62q-49 -166 -179 -266t-333 -100q-250 0 -418 181t-168 468zM399 -381l144 285h233 l-151 -285h-226z" />
<glyph unicode="&#xc8;" horiz-adv-x="1056" d="M121 0v1257h854v-229h-596v-274h541v-224h-541v-299h596v-231h-854zM252 1620h276l164 -250h-250z" />
<glyph unicode="&#xc9;" horiz-adv-x="1056" d="M121 0v1257h854v-229h-596v-274h541v-224h-541v-299h596v-231h-854zM418 1370l164 250h276l-190 -250h-250z" />
<glyph unicode="&#xca;" horiz-adv-x="1056" d="M121 0v1257h854v-229h-596v-274h541v-224h-541v-299h596v-231h-854zM244 1370l205 260h212l205 -260h-215l-96 111l-96 -111h-215z" />
<glyph unicode="&#xcb;" horiz-adv-x="1056" d="M121 0v1257h854v-229h-596v-274h541v-224h-541v-299h596v-231h-854zM250 1495q0 59 40 99t97 40t97 -40t40 -99q0 -55 -40 -95t-97 -40t-97 40t-40 95zM588 1495q0 59 40 99t97 40t98 -40t41 -99q0 -55 -41 -95t-98 -40t-97 40t-40 95z" />
<glyph unicode="&#xcc;" horiz-adv-x="501" d="M-53 1620h276l164 -250h-250zM121 0v1257h262v-1257h-262z" />
<glyph unicode="&#xcd;" horiz-adv-x="501" d="M115 1370l164 250h276l-190 -250h-250zM121 0v1257h262v-1257h-262z" />
<glyph unicode="&#xce;" horiz-adv-x="501" d="M-59 1370l205 260h212l205 -260h-215l-96 111l-96 -111h-215zM121 0v1257h262v-1257h-262z" />
<glyph unicode="&#xcf;" horiz-adv-x="501" d="M-55 1495q0 59 40 99t97 40t97 -40t40 -99q0 -55 -40 -95t-97 -40t-97 40t-40 95zM121 0v1257h262v-1257h-262zM283 1495q0 59 40 99t97 40t98 -40t41 -99q0 -55 -41 -95t-98 -40t-97 40t-40 95z" />
<glyph unicode="&#xd0;" horiz-adv-x="1282" d="M51 541v211h105v505h444q285 0 453 -171t168 -457q0 -287 -168 -458t-453 -171h-444v541h-105zM416 231h174q178 0 274.5 107.5t96.5 290.5q0 184 -96.5 291.5t-274.5 107.5h-174v-276h211v-211h-211v-310z" />
<glyph unicode="&#xd1;" horiz-adv-x="1294" d="M121 0v1257h246l555 -794v794h252v-1257h-207l-594 838v-838h-252zM342 1364q0 121 41 203t133 82q74 0 126 -43t105 -43q27 0 42.5 20.5t17.5 58.5h145q0 -121 -41 -202.5t-133 -81.5q-74 0 -126 43t-105 43q-29 0 -43.5 -20.5t-16.5 -59.5h-145z" />
<glyph unicode="&#xd2;" horiz-adv-x="1310" d="M59 629q0 281 166 465t428 184t429 -184t167 -465t-167 -465t-429 -184t-428 184t-166 465zM326 629q0 -184 90 -300t237 -116q150 0 241 116t91 300t-91 299.5t-241 115.5q-147 0 -237 -115.5t-90 -299.5zM350 1620h276l164 -250h-250z" />
<glyph unicode="&#xd3;" horiz-adv-x="1310" d="M59 629q0 281 166 465t428 184t429 -184t167 -465t-167 -465t-429 -184t-428 184t-166 465zM326 629q0 -184 90 -300t237 -116q150 0 241 116t91 300t-91 299.5t-241 115.5q-147 0 -237 -115.5t-90 -299.5zM516 1370l164 250h276l-190 -250h-250z" />
<glyph unicode="&#xd4;" horiz-adv-x="1310" d="M59 629q0 281 166 465t428 184t429 -184t167 -465t-167 -465t-429 -184t-428 184t-166 465zM326 629q0 -184 90 -300t237 -116q150 0 241 116t91 300t-91 299.5t-241 115.5q-147 0 -237 -115.5t-90 -299.5zM342 1370l205 260h212l205 -260h-215l-96 111l-96 -111h-215z " />
<glyph unicode="&#xd5;" horiz-adv-x="1310" d="M59 629q0 281 166 465t428 184t429 -184t167 -465t-167 -465t-429 -184t-428 184t-166 465zM326 629q0 -184 90 -300t237 -116q150 0 241 116t91 300t-91 299.5t-241 115.5q-147 0 -237 -115.5t-90 -299.5zM348 1364q0 121 41 203t133 82q74 0 126 -43t105 -43 q27 0 42.5 20.5t17.5 58.5h145q0 -121 -41 -202.5t-133 -81.5q-74 0 -126 43t-105 43q-29 0 -43.5 -20.5t-16.5 -59.5h-145z" />
<glyph unicode="&#xd6;" horiz-adv-x="1310" d="M59 629q0 281 166 465t428 184t429 -184t167 -465t-167 -465t-429 -184t-428 184t-166 465zM326 629q0 -184 90 -300t237 -116q150 0 241 116t91 300t-91 299.5t-241 115.5q-147 0 -237 -115.5t-90 -299.5zM348 1495q0 59 40 99t97 40t97 -40t40 -99q0 -55 -40 -95 t-97 -40t-97 40t-40 95zM686 1495q0 59 40 99t97 40t98 -40t41 -99q0 -55 -41 -95t-98 -40t-97 40t-40 95z" />
<glyph unicode="&#xd7;" horiz-adv-x="1013" d="M123 362l250 248l-250 246l135 135l248 -248l248 248l137 -135l-250 -246l250 -248l-137 -137l-248 248l-248 -248z" />
<glyph unicode="&#xd8;" horiz-adv-x="1329" d="M70 629q0 281 165.5 465t428.5 184q100 0 189 -29.5t161 -83.5l98 119l119 -90l-111 -133q66 -84 103 -194.5t37 -237.5q0 -281 -167 -465t-429 -184q-100 0 -188.5 28.5t-158.5 81.5l-96 -117l-119 90l109 130q-68 86 -104.5 196.5t-36.5 239.5zM334 629 q0 -66 11 -125.5t34 -106.5l481 582q-39 33 -88 49t-108 16q-147 0 -238.5 -115.5t-91.5 -299.5zM471 274q39 -29 87.5 -45t105.5 -16q147 0 239 115.5t92 300.5q0 63 -11 121.5t-32 107.5z" />
<glyph unicode="&#xd9;" horiz-adv-x="1249" d="M102 506v751h263v-725q0 -160 68.5 -238.5t191.5 -78.5t191.5 79t68.5 238v725h262v-751q0 -258 -143 -392t-379 -134q-233 0 -378 134t-145 392zM320 1620h276l164 -250h-250z" />
<glyph unicode="&#xda;" horiz-adv-x="1249" d="M102 506v751h263v-725q0 -160 68.5 -238.5t191.5 -78.5t191.5 79t68.5 238v725h262v-751q0 -258 -143 -392t-379 -134q-233 0 -378 134t-145 392zM488 1370l164 250h276l-190 -250h-250z" />
<glyph unicode="&#xdb;" horiz-adv-x="1249" d="M102 506v751h263v-725q0 -160 68.5 -238.5t191.5 -78.5t191.5 79t68.5 238v725h262v-751q0 -258 -143 -392t-379 -134q-233 0 -378 134t-145 392zM314 1370l205 260h212l205 -260h-215l-96 111l-96 -111h-215z" />
<glyph unicode="&#xdc;" horiz-adv-x="1249" d="M102 506v751h263v-725q0 -160 68.5 -238.5t191.5 -78.5t191.5 79t68.5 238v725h262v-751q0 -258 -143 -392t-379 -134q-233 0 -378 134t-145 392zM320 1495q0 59 40 99t97 40t97 -40t40 -99q0 -55 -40 -95t-97 -40t-97 40t-40 95zM658 1495q0 59 40 99t97 40t98 -40 t41 -99q0 -55 -41 -95t-98 -40t-97 40t-40 95z" />
<glyph unicode="&#xdd;" horiz-adv-x="1214" d="M23 1257h284l305 -532l303 532h277l-457 -780v-477h-260v477zM469 1370l164 250h276l-190 -250h-250z" />
<glyph unicode="&#xde;" horiz-adv-x="1130" d="M121 0v1257h260v-202h252q199 0 320.5 -104.5t121.5 -307.5q0 -199 -122 -304.5t-320 -105.5h-252v-233h-260zM381 457h235q100 0 150.5 52t50.5 134q0 84 -50 136t-151 52h-235v-374z" />
<glyph unicode="&#xdf;" horiz-adv-x="1083" d="M111 0v915q0 197 115.5 316t308.5 119q197 0 300 -99.5t103 -246.5q0 -100 -42 -169t-99 -96q98 -33 165.5 -126t67.5 -222q0 -193 -119.5 -297t-285.5 -104q-49 0 -96.5 9t-86.5 30l45 200q20 -10 48 -18t61 -8q88 0 140 55t52 152q0 98 -65.5 152t-177.5 54h-74v207h64 q76 0 119.5 40t43.5 118q0 68 -43 111t-118 43q-90 0 -133.5 -60.5t-43.5 -148.5v-926h-249z" />
<glyph unicode="&#xe0;" horiz-adv-x="958" d="M55 281q0 129 103.5 210.5t251.5 81.5q59 0 120.5 -16t87.5 -37v68q0 57 -36.5 98t-112.5 41q-55 0 -92 -22.5t-55 -61.5l-226 55q39 104 142.5 171t240.5 67q180 0 281.5 -94t101.5 -258v-584h-244v49q-23 -23 -85 -44t-138 -21q-137 0 -238.5 77.5t-101.5 219.5z M209 1331h252l162 -291h-232zM291 283q0 -59 51 -86t111 -27q55 0 102 21.5t63 58.5v65q-16 37 -63 58.5t-102 21.5q-59 0 -110.5 -27.5t-51.5 -84.5z" />
<glyph unicode="&#xe1;" horiz-adv-x="958" d="M55 281q0 129 103.5 210.5t251.5 81.5q59 0 120.5 -16t87.5 -37v68q0 57 -36.5 98t-112.5 41q-55 0 -92 -22.5t-55 -61.5l-226 55q39 104 142.5 171t240.5 67q180 0 281.5 -94t101.5 -258v-584h-244v49q-23 -23 -85 -44t-138 -21q-137 0 -238.5 77.5t-101.5 219.5z M291 283q0 -59 51 -86t111 -27q55 0 102 21.5t63 58.5v65q-16 37 -63 58.5t-102 21.5q-59 0 -110.5 -27.5t-51.5 -84.5zM371 1040l162 291h252l-184 -291h-230z" />
<glyph unicode="&#xe2;" horiz-adv-x="958" d="M55 281q0 129 103.5 210.5t251.5 81.5q59 0 120.5 -16t87.5 -37v68q0 57 -36.5 98t-112.5 41q-55 0 -92 -22.5t-55 -61.5l-226 55q39 104 142.5 171t240.5 67q180 0 281.5 -94t101.5 -258v-584h-244v49q-23 -23 -85 -44t-138 -21q-137 0 -238.5 77.5t-101.5 219.5z M191 1028l195 297h212l195 -297h-201l-100 141l-100 -141h-201zM291 283q0 -59 51 -86t111 -27q55 0 102 21.5t63 58.5v65q-16 37 -63 58.5t-102 21.5q-59 0 -110.5 -27.5t-51.5 -84.5z" />
<glyph unicode="&#xe3;" horiz-adv-x="958" d="M55 281q0 129 103.5 210.5t251.5 81.5q59 0 120.5 -16t87.5 -37v68q0 57 -36.5 98t-112.5 41q-55 0 -92 -22.5t-55 -61.5l-226 55q39 104 142.5 171t240.5 67q180 0 281.5 -94t101.5 -258v-584h-244v49q-23 -23 -85 -44t-138 -21q-137 0 -238.5 77.5t-101.5 219.5z M201 1040q0 121 42 203t134 82q68 0 113 -47t90 -47q29 0 44 23.5t17 62.5h146q0 -121 -42 -203t-134 -82q-68 0 -113 47t-90 47q-29 0 -44 -23.5t-17 -62.5h-146zM291 283q0 -59 51 -86t111 -27q55 0 102 21.5t63 58.5v65q-16 37 -63 58.5t-102 21.5q-59 0 -110.5 -27.5 t-51.5 -84.5z" />
<glyph unicode="&#xe4;" horiz-adv-x="958" d="M55 281q0 129 103.5 210.5t251.5 81.5q59 0 120.5 -16t87.5 -37v68q0 57 -36.5 98t-112.5 41q-55 0 -92 -22.5t-55 -61.5l-226 55q39 104 142.5 171t240.5 67q180 0 281.5 -94t101.5 -258v-584h-244v49q-23 -23 -85 -44t-138 -21q-137 0 -238.5 77.5t-101.5 219.5z M193 1167q0 57 40 97.5t97 40.5q55 0 95 -40t40 -98q0 -55 -40 -95t-95 -40q-57 0 -97 40t-40 95zM291 283q0 -59 51 -86t111 -27q55 0 102 21.5t63 58.5v65q-16 37 -63 58.5t-102 21.5q-59 0 -110.5 -27.5t-51.5 -84.5zM529 1167q0 57 40 97.5t95 40.5t96 -40t41 -98 q0 -55 -41 -95t-96 -40t-95 40t-40 95z" />
<glyph unicode="&#xe5;" horiz-adv-x="958" d="M55 281q0 129 103.5 210.5t251.5 81.5q59 0 120.5 -16t87.5 -37v68q0 57 -36.5 98t-112.5 41q-55 0 -92 -22.5t-55 -61.5l-226 55q39 104 142.5 171t240.5 67q180 0 281.5 -94t101.5 -258v-584h-244v49q-23 -23 -85 -44t-138 -21q-137 0 -238.5 77.5t-101.5 219.5z M291 283q0 -59 51 -86t111 -27q55 0 102 21.5t63 58.5v65q-16 37 -63 58.5t-102 21.5q-59 0 -110.5 -27.5t-51.5 -84.5zM309 1196q0 84 58.5 141.5t144.5 57.5t144.5 -57.5t58.5 -141.5t-58.5 -141.5t-144.5 -57.5t-144.5 57.5t-58.5 141.5zM432 1196q0 -33 23.5 -56.5 t56.5 -23.5t57.5 23.5t24.5 56.5t-24.5 57.5t-57.5 24.5t-56.5 -24.5t-23.5 -57.5z" />
<glyph unicode="&#xe6;" horiz-adv-x="1497" d="M55 268q0 139 108.5 215t262.5 76h186v29q0 57 -34.5 98t-110.5 41q-55 0 -92 -22.5t-56 -61.5l-225 55q37 104 138.5 171t236.5 67q100 0 172 -32t115 -89q51 51 121.5 86t154.5 35q197 0 305.5 -127t108.5 -328v-82h-608q6 -102 60 -158.5t136 -56.5q63 0 109.5 29 t66.5 86l217 -53q-37 -121 -138 -193.5t-255 -72.5q-100 0 -180 34.5t-137 91.5q-55 -55 -136 -89.5t-186 -34.5q-137 0 -238.5 76.5t-101.5 209.5zM291 287q0 -57 45 -85t100 -28q63 0 109.5 27.5t66.5 77.5v118h-163q-59 0 -108.5 -26.5t-49.5 -83.5zM844 557h354 q-2 72 -44 122t-122 50q-72 0 -122 -44t-66 -128z" />
<glyph unicode="&#xe7;" horiz-adv-x="917" d="M53 457q0 213 123 346t313 133q152 0 251.5 -74t131.5 -196l-235 -58q-10 51 -49 81t-96 30q-88 0 -137.5 -73t-49.5 -189q0 -115 49 -187.5t138 -72.5q57 0 96 29.5t49 80.5l235 -57q-33 -123 -132 -196.5t-251 -73.5q-190 0 -313 133t-123 344zM239 -381l144 285h233 l-151 -285h-226z" />
<glyph unicode="&#xe8;" horiz-adv-x="960" d="M53 457q0 207 125 343t316 136q201 0 308 -127t107 -328v-78h-610q6 -104 61.5 -161.5t141.5 -57.5q63 0 109 29t67 86l217 -53q-37 -121 -139.5 -193.5t-255.5 -72.5q-199 0 -323 133t-124 344zM215 1331h252l162 -291h-232zM305 557h354q-2 72 -43.5 122t-119.5 50 q-74 0 -124 -44t-67 -128z" />
<glyph unicode="&#xe9;" horiz-adv-x="960" d="M53 457q0 207 125 343t316 136q201 0 308 -127t107 -328v-78h-610q6 -104 61.5 -161.5t141.5 -57.5q63 0 109 29t67 86l217 -53q-37 -121 -139.5 -193.5t-255.5 -72.5q-199 0 -323 133t-124 344zM305 557h354q-2 72 -43.5 122t-119.5 50q-74 0 -124 -44t-67 -128z M379 1040l162 291h252l-184 -291h-230z" />
<glyph unicode="&#xea;" horiz-adv-x="960" d="M53 457q0 207 125 343t316 136q201 0 308 -127t107 -328v-78h-610q6 -104 61.5 -161.5t141.5 -57.5q63 0 109 29t67 86l217 -53q-37 -121 -139.5 -193.5t-255.5 -72.5q-199 0 -323 133t-124 344zM201 1028l195 297h212l195 -297h-201l-100 141l-100 -141h-201zM305 557 h354q-2 72 -43.5 122t-119.5 50q-74 0 -124 -44t-67 -128z" />
<glyph unicode="&#xeb;" horiz-adv-x="960" d="M53 457q0 207 125 343t316 136q201 0 308 -127t107 -328v-78h-610q6 -104 61.5 -161.5t141.5 -57.5q63 0 109 29t67 86l217 -53q-37 -121 -139.5 -193.5t-255.5 -72.5q-199 0 -323 133t-124 344zM201 1167q0 57 40 97.5t97 40.5q55 0 95 -40t40 -98q0 -55 -40 -95 t-95 -40q-57 0 -97 40t-40 95zM305 557h354q-2 72 -43.5 122t-119.5 50q-74 0 -124 -44t-67 -128zM537 1167q0 57 40 97.5t95 40.5t96 -40t41 -98q0 -55 -41 -95t-96 -40t-95 40t-40 95z" />
<glyph unicode="&#xec;" horiz-adv-x="475" d="M-51 1331h252l162 -291h-232zM111 0v915h254v-915h-254z" />
<glyph unicode="&#xed;" horiz-adv-x="475" d="M111 0v915h254v-915h-254zM112 1040l162 291h252l-184 -291h-230z" />
<glyph unicode="&#xee;" horiz-adv-x="475" d="M-29 1028l160 297h213l158 -297h-195l-69 143l-72 -143h-195zM111 0v915h254v-915h-254z" />
<glyph unicode="&#xef;" horiz-adv-x="475" d="M-55 1167q0 57 40 97.5t97 40.5q55 0 95 -40t40 -98q0 -55 -40 -95t-95 -40q-57 0 -97 40t-40 95zM111 0v915h254v-915h-254zM260 1167q0 57 39 97.5t96 40.5q55 0 95 -40t40 -98q0 -55 -39.5 -95t-95.5 -40q-57 0 -96 40t-39 95z" />
<glyph unicode="&#xf0;" horiz-adv-x="1001" d="M53 453q0 209 122 340t304 131q49 0 84 -14.5t58 -35.5h8q-18 37 -58.5 82t-91.5 97l-198 -64l-50 127l129 41q-51 43 -106 85t-111 81v8h322q33 -23 64.5 -47t62.5 -51l172 55l49 -127l-115 -37q119 -135 185.5 -298.5t66.5 -346.5q0 -227 -124.5 -363t-323.5 -136 t-324 133t-125 340zM305 453q0 -113 51.5 -185.5t145.5 -72.5t145 72.5t51 185.5t-51 186.5t-145 73.5t-145.5 -74t-51.5 -186z" />
<glyph unicode="&#xf1;" horiz-adv-x="1034" d="M111 0v915h254v-84q37 43 101 74t144 31q154 0 239 -93t85 -245v-598h-254v545q0 72 -37 117t-113 45q-57 0 -104 -34t-61 -93v-580h-254zM233 1040q0 121 42 203t134 82q68 0 113 -47t90 -47q29 0 44 23.5t17 62.5h146q0 -121 -42 -203t-134 -82q-68 0 -113 47t-90 47 q-29 0 -44 -23.5t-17 -62.5h-146z" />
<glyph unicode="&#xf2;" horiz-adv-x="1001" d="M53 457q0 211 125 345t324 134t323.5 -134t124.5 -345q0 -209 -125 -343t-323 -134q-199 0 -324 134t-125 343zM213 1331h252l162 -291h-232zM305 457q0 -113 51.5 -187.5t145.5 -74.5t145 74.5t51 187.5q0 115 -51 189.5t-145 74.5t-145.5 -75t-51.5 -189z" />
<glyph unicode="&#xf3;" horiz-adv-x="1001" d="M53 457q0 211 125 345t324 134t323.5 -134t124.5 -345q0 -209 -125 -343t-323 -134q-199 0 -324 134t-125 343zM305 457q0 -113 51.5 -187.5t145.5 -74.5t145 74.5t51 187.5q0 115 -51 189.5t-145 74.5t-145.5 -75t-51.5 -189zM375 1040l162 291h252l-184 -291h-230z" />
<glyph unicode="&#xf4;" horiz-adv-x="1001" d="M53 457q0 211 125 345t324 134t323.5 -134t124.5 -345q0 -209 -125 -343t-323 -134q-199 0 -324 134t-125 343zM201 1028l195 297h212l195 -297h-201l-100 141l-100 -141h-201zM305 457q0 -113 51.5 -187.5t145.5 -74.5t145 74.5t51 187.5q0 115 -51 189.5t-145 74.5 t-145.5 -75t-51.5 -189z" />
<glyph unicode="&#xf5;" horiz-adv-x="1001" d="M53 457q0 211 125 345t324 134t323.5 -134t124.5 -345q0 -209 -125 -343t-323 -134q-199 0 -324 134t-125 343zM209 1040q0 121 42 203t134 82q68 0 113 -47t90 -47q29 0 44 23.5t17 62.5h146q0 -121 -42 -203t-134 -82q-68 0 -113 47t-90 47q-29 0 -44 -23.5t-17 -62.5 h-146zM305 457q0 -113 51.5 -187.5t145.5 -74.5t145 74.5t51 187.5q0 115 -51 189.5t-145 74.5t-145.5 -75t-51.5 -189z" />
<glyph unicode="&#xf6;" horiz-adv-x="1001" d="M53 457q0 211 125 345t324 134t323.5 -134t124.5 -345q0 -209 -125 -343t-323 -134q-199 0 -324 134t-125 343zM199 1167q0 57 40 97.5t97 40.5q55 0 95 -40t40 -98q0 -55 -40 -95t-95 -40q-57 0 -97 40t-40 95zM305 457q0 -113 51.5 -187.5t145.5 -74.5t145 74.5 t51 187.5q0 115 -51 189.5t-145 74.5t-145.5 -75t-51.5 -189zM535 1167q0 57 40 97.5t95 40.5t96 -40t41 -98q0 -55 -41 -95t-96 -40t-95 40t-40 95z" />
<glyph unicode="&#xf7;" horiz-adv-x="1146" d="M131 514v197h885v-197h-885zM430 258q0 59 42 101t101 42t103.5 -42t44.5 -101t-44 -102t-104 -43q-59 0 -101 43t-42 102zM430 967q0 59 42 102t101 43t103.5 -43t44.5 -102t-44 -101.5t-104 -42.5q-59 0 -101 42.5t-42 101.5z" />
<glyph unicode="&#xf8;" horiz-adv-x="1021" d="M63 457q0 211 125 345t324 134q72 0 136.5 -19.5t115.5 -52.5l84 103l98 -74l-92 -113q51 -61 79 -144t28 -179q0 -209 -125 -343t-324 -134q-72 0 -136.5 19t-115.5 52l-90 -108l-100 75l98 119q-51 61 -78 143t-27 177zM311 457q0 -33 5.5 -64t13.5 -57l291 352 q-23 16 -49.5 25.5t-59.5 9.5q-94 0 -147.5 -75.5t-53.5 -190.5zM401 227q23 -18 50.5 -27.5t60.5 -9.5q94 0 147.5 77t53.5 190q0 35 -5.5 67.5t-15.5 59.5z" />
<glyph unicode="&#xf9;" horiz-adv-x="1030" d="M100 317v598h254v-546q0 -72 36 -117t112 -45q57 0 103 33.5t61 93.5v581h256v-915h-254v84q-39 -43 -102.5 -73.5t-143.5 -30.5q-154 0 -238 93t-84 244zM227 1331h252l162 -291h-232z" />
<glyph unicode="&#xfa;" horiz-adv-x="1030" d="M100 317v598h254v-546q0 -72 36 -117t112 -45q57 0 103 33.5t61 93.5v581h256v-915h-254v84q-39 -43 -102.5 -73.5t-143.5 -30.5q-154 0 -238 93t-84 244zM391 1040l162 291h252l-184 -291h-230z" />
<glyph unicode="&#xfb;" horiz-adv-x="1030" d="M100 317v598h254v-546q0 -72 36 -117t112 -45q57 0 103 33.5t61 93.5v581h256v-915h-254v84q-39 -43 -102.5 -73.5t-143.5 -30.5q-154 0 -238 93t-84 244zM215 1028l195 297h212l195 -297h-201l-100 141l-100 -141h-201z" />
<glyph unicode="&#xfc;" horiz-adv-x="1030" d="M100 317v598h254v-546q0 -72 36 -117t112 -45q57 0 103 33.5t61 93.5v581h256v-915h-254v84q-39 -43 -102.5 -73.5t-143.5 -30.5q-154 0 -238 93t-84 244zM213 1167q0 57 40 97.5t97 40.5q55 0 95 -40t40 -98q0 -55 -40 -95t-95 -40q-57 0 -97 40t-40 95zM549 1167 q0 57 40 97.5t95 40.5t96 -40t41 -98q0 -55 -41 -95t-96 -40t-95 40t-40 95z" />
<glyph unicode="&#xfd;" horiz-adv-x="997" d="M27 915h268l211 -608l209 608h256l-383 -1001q-53 -143 -141.5 -207.5t-198.5 -64.5q-45 0 -84 9t-64 23l43 193q14 -8 35 -14.5t47 -6.5q41 0 75 19.5t52 66.5l27 64zM379 1040l162 291h252l-184 -291h-230z" />
<glyph unicode="&#xfe;" horiz-adv-x="1062" d="M111 -338v1669h254v-491q31 37 93 66.5t136 29.5q199 0 308.5 -143.5t109.5 -335.5q0 -193 -109.5 -335t-308.5 -142q-74 0 -136.5 29.5t-92.5 66.5v-414h-254zM365 307q23 -47 69.5 -76.5t102.5 -29.5q102 0 160.5 73.5t58.5 182.5q0 111 -58.5 184.5t-160.5 73.5 q-57 0 -103.5 -31t-68.5 -76v-301z" />
<glyph unicode="&#xff;" horiz-adv-x="997" d="M27 915h268l211 -608l209 608h256l-383 -1001q-53 -143 -141.5 -207.5t-198.5 -64.5q-45 0 -84 9t-64 23l43 193q14 -8 35 -14.5t47 -6.5q41 0 75 19.5t52 66.5l27 64zM201 1167q0 57 40 97.5t97 40.5q55 0 95 -40t40 -98q0 -55 -40 -95t-95 -40q-57 0 -97 40t-40 95z M537 1167q0 57 40 97.5t95 40.5t96 -40t41 -98q0 -55 -41 -95t-96 -40t-95 40t-40 95z" />
<glyph unicode="&#x152;" horiz-adv-x="1703" d="M59 629q0 287 168 457.5t453 170.5h942v-229h-557v-274h502v-224h-502v-299h557v-231h-942q-285 0 -453 171t-168 458zM322 629q0 -182 95 -290t275 -108h115v797h-115q-180 0 -275 -107.5t-95 -291.5z" />
<glyph unicode="&#x153;" horiz-adv-x="1593" d="M53 457q0 211 125 345t324 134q96 0 176 -36t137 -97q57 61 137 97t176 36q201 0 308.5 -127t107.5 -328v-78h-610q6 -102 60.5 -160.5t138.5 -58.5q63 0 109 29t67 86l217 -53q-35 -121 -137.5 -193.5t-255.5 -72.5q-98 0 -179.5 34.5t-138.5 96.5q-57 -61 -137 -96 t-176 -35q-199 0 -324 134t-125 343zM305 457q0 -113 51.5 -187.5t145.5 -74.5t145 74.5t51 187.5q0 115 -51 189.5t-145 74.5t-145.5 -75t-51.5 -189zM940 557h354q-2 72 -44 122t-120 50q-74 0 -124 -44t-66 -128z" />
<glyph unicode="&#x178;" horiz-adv-x="1214" d="M23 1257h284l305 -532l303 532h277l-457 -780v-477h-260v477zM301 1495q0 59 40 99t97 40t97 -40t40 -99q0 -55 -40 -95t-97 -40t-97 40t-40 95zM639 1495q0 59 40 99t97 40t98 -40t41 -99q0 -55 -41 -95t-98 -40t-97 40t-40 95z" />
<glyph unicode="&#x2c6;" horiz-adv-x="1024" d="M211 1028l195 297h212l195 -297h-201l-100 141l-100 -141h-201z" />
<glyph unicode="&#x2dc;" horiz-adv-x="1024" d="M219 1040q0 121 42 203t134 82q68 0 113 -47t90 -47q29 0 44 23.5t17 62.5h146q0 -121 -42 -203t-134 -82q-68 0 -113 47t-90 47q-29 0 -44 -23.5t-17 -62.5h-146z" />
<glyph unicode="&#x2000;" horiz-adv-x="860" />
<glyph unicode="&#x2001;" horiz-adv-x="1720" />
<glyph unicode="&#x2002;" horiz-adv-x="860" />
<glyph unicode="&#x2003;" horiz-adv-x="1720" />
<glyph unicode="&#x2004;" horiz-adv-x="573" />
<glyph unicode="&#x2005;" horiz-adv-x="430" />
<glyph unicode="&#x2006;" horiz-adv-x="286" />
<glyph unicode="&#x2007;" horiz-adv-x="286" />
<glyph unicode="&#x2008;" horiz-adv-x="215" />
<glyph unicode="&#x2009;" horiz-adv-x="344" />
<glyph unicode="&#x200a;" horiz-adv-x="95" />
<glyph unicode="&#x2010;" horiz-adv-x="649" d="M78 426v221h493v-221h-493z" />
<glyph unicode="&#x2011;" horiz-adv-x="649" d="M78 426v221h493v-221h-493z" />
<glyph unicode="&#x2012;" horiz-adv-x="649" d="M78 426v221h493v-221h-493z" />
<glyph unicode="&#x2013;" horiz-adv-x="964" d="M78 444v185h809v-185h-809z" />
<glyph unicode="&#x2014;" horiz-adv-x="1724" d="M78 444v185h1569v-185h-1569z" />
<glyph unicode="&#x2018;" horiz-adv-x="419" d="M43 903q0 45 20.5 94.5t47.5 89.5l112 170h162l-145 -225q51 -8 88 -47t37 -100q0 -68 -46.5 -112t-113.5 -44q-66 0 -114 45t-48 129z" />
<glyph unicode="&#x2019;" horiz-adv-x="419" d="M35 750l145 225q-51 8 -88 47t-37 100q0 68 46 112t114 44q66 0 114 -45t48 -129q0 -45 -20.5 -94t-47.5 -90l-112 -170h-162z" />
<glyph unicode="&#x201a;" horiz-adv-x="419" d="M35 -225l145 225q-51 8 -88 47t-37 100q0 68 46 112t114 44q66 0 114 -45t48 -129q0 -45 -20.5 -94t-47.5 -90l-112 -170h-162z" />
<glyph unicode="&#x201c;" horiz-adv-x="819" d="M43 903q0 45 20.5 94.5t47.5 89.5l112 170h162l-145 -225q51 -8 88 -47t37 -100q0 -68 -46.5 -112t-113.5 -44q-66 0 -114 45t-48 129zM442 903q0 45 20.5 94.5t47.5 89.5l113 170h161l-145 -225q51 -8 88 -47t37 -100q0 -68 -46 -112t-114 -44q-66 0 -114 45t-48 129z " />
<glyph unicode="&#x201d;" horiz-adv-x="819" d="M35 750l145 225q-51 8 -88 47t-37 100q0 68 46 112t114 44q66 0 114 -45t48 -129q0 -45 -20.5 -94t-47.5 -90l-112 -170h-162zM434 750l146 225q-51 8 -88 47t-37 100q0 68 46 112t113 44q66 0 114 -45t48 -129q0 -45 -20.5 -94t-46.5 -90l-113 -170h-162z" />
<glyph unicode="&#x201e;" horiz-adv-x="819" d="M35 -225l145 225q-51 8 -88 47t-37 100q0 68 46 112t114 44q66 0 114 -45t48 -129q0 -45 -20.5 -94t-47.5 -90l-112 -170h-162zM434 -225l146 225q-51 8 -88 47t-37 100q0 68 46 112t113 44q66 0 114 -45t48 -129q0 -45 -20.5 -94t-46.5 -90l-113 -170h-162z" />
<glyph unicode="&#x2022;" horiz-adv-x="745" d="M59 537q0 139 92.5 226t221.5 87t222 -87t93 -226q0 -137 -93 -224.5t-222 -87.5t-221.5 87t-92.5 225z" />
<glyph unicode="&#x2026;" horiz-adv-x="1372" d="M55 150q0 70 46 115.5t114 45.5t114 -46t46 -115q0 -70 -46 -117t-114 -47t-114 47t-46 117zM526 150q0 70 46 115.5t114 45.5t114 -46t46 -115q0 -70 -46 -117t-114 -47t-114 47t-46 117zM997 150q0 70 46.5 115.5t113.5 45.5q68 0 114 -46t46 -115q0 -70 -46 -117 t-114 -47t-114 47t-46 117z" />
<glyph unicode="&#x202f;" horiz-adv-x="344" />
<glyph unicode="&#x2039;" horiz-adv-x="520" d="M51 455l189 329h229l-188 -329l188 -330h-229z" />
<glyph unicode="&#x203a;" horiz-adv-x="520" d="M51 125l189 330l-189 329h230l188 -329l-188 -330h-230z" />
<glyph unicode="&#x205f;" horiz-adv-x="430" />
<glyph unicode="&#x20ac;" horiz-adv-x="1134" d="M53 412v157h99q-2 14 -2 29.5v30.5v27.5t2 25.5h-99v158h121q47 201 178 319.5t310 118.5q162 0 270 -87t149 -235l-223 -55q-16 68 -66.5 108t-129.5 40q-88 0 -147.5 -57.5t-86.5 -151.5h338l-31 -158h-334q-2 -12 -2 -25.5v-27.5v-29.5t2 -30.5h318l-33 -157h-258 q31 -94 88 -148.5t146 -54.5q80 0 130 40t66 107l223 -55q-41 -147 -149.5 -234t-269.5 -87q-178 0 -308.5 117.5t-179.5 314.5h-121z" />
<glyph unicode="&#x2122;" horiz-adv-x="1232" d="M41 1126v131h467v-131h-158v-389h-151v389h-158zM580 737v520h180l108 -313l111 313h178v-520h-137v299l-105 -299h-94l-104 299v-299h-137z" />
<glyph unicode="&#x25fc;" horiz-adv-x="911" d="M0 0v911h911v-911h-911z" />
</font>
</defs>
</svg>
